<svg width="31" height="40" viewBox="0 0 31 40" fill="none" xmlns="http://www.w3.org/2000/svg">
<path d="M15.195 38.7109C15.195 38.7109 29.3046 27.4232 29.3046 15.1949C29.3046 7.40266 22.9873 1.08533 15.195 1.08533C7.40278 1.08533 1.08545 7.40266 1.08545 15.1949C1.08545 27.4232 15.195 38.7109 15.195 38.7109Z" stroke="#4DC853" stroke-width="2.17071" stroke-linejoin="round"/>
<path d="M14.3663 23.4348C15.3727 23.4348 16.3692 23.2365 17.299 22.8514C18.2287 22.4663 19.0735 21.9018 19.7852 21.1902C20.4968 20.4786 21.0613 19.6338 21.4464 18.704C21.8315 17.7742 22.0297 16.7777 22.0297 15.7713C22.0297 14.765 21.8315 13.7684 21.4464 12.8387C21.0613 11.9089 20.4968 11.0641 19.7852 10.3525C19.0735 9.64086 18.2287 9.07638 17.299 8.69125C16.3692 8.30613 15.3727 8.10791 14.3663 8.10791C12.3338 8.10791 10.3846 8.9153 8.94744 10.3525C7.51027 11.7896 6.70288 13.7389 6.70288 15.7713C6.70288 17.8038 7.51027 19.753 8.94744 21.1902C10.3846 22.6274 12.3338 23.4348 14.3663 23.4348Z" stroke="#4DC853" stroke-width="2.94747" stroke-linejoin="round"/>
</svg>
