<svg width="52" height="52" viewBox="0 0 52 52" fill="none" xmlns="http://www.w3.org/2000/svg">
<path d="M13.9004 10.6273C14.028 12.519 14.3468 14.3682 14.8569 16.1323L12.3063 18.6829C11.4349 16.1323 10.8822 13.4329 10.691 10.6273H13.9004ZM34.8577 36.1756C36.6644 36.6857 38.5135 37.0046 40.384 37.1321V40.2991C37.5783 40.1078 34.879 39.5551 32.3071 38.7049L34.8577 36.1756ZM15.9409 6.37634H8.5017C7.33269 6.37634 6.37622 7.33281 6.37622 8.50183C6.37622 28.4601 22.5511 44.635 42.5094 44.635C43.6785 44.635 44.6349 43.6786 44.6349 42.5096V35.0916C44.6349 33.9226 43.6785 32.9661 42.5094 32.9661C39.8738 32.9661 37.302 32.541 34.9215 31.7546C34.711 31.676 34.4871 31.6399 34.2626 31.6483C33.7099 31.6483 33.1786 31.8609 32.7535 32.2647L28.0774 36.9408C22.0527 33.8596 17.1517 28.9586 14.0705 22.9339L18.7465 18.2578C19.3417 17.6627 19.5117 16.8337 19.2779 16.0898C18.473 13.641 18.064 11.0795 18.0664 8.50183C18.0664 7.33281 17.1099 6.37634 15.9409 6.37634Z" fill="#4DC853"/>
</svg>
