<svg width="50" height="50" viewBox="0 0 50 50" fill="none" xmlns="http://www.w3.org/2000/svg">
<path d="M8.32068 41.6052C7.17653 41.6052 6.19742 41.1982 5.38335 40.3841C4.56927 39.57 4.16154 38.5902 4.16016 37.4447V12.4816C4.16016 11.3374 4.56789 10.3583 5.38335 9.54424C6.19881 8.73016 7.17792 8.32243 8.32068 8.32104H41.6048C42.749 8.32104 43.7288 8.72878 44.5442 9.54424C45.3597 10.3597 45.7667 11.3388 45.7654 12.4816V37.4447C45.7654 38.5888 45.3583 39.5686 44.5442 40.3841C43.7302 41.1996 42.7504 41.6066 41.6048 41.6052H8.32068ZM24.9628 27.0434L8.32068 16.6421V37.4447H41.6048V16.6421L24.9628 27.0434ZM24.9628 22.8829L41.6048 12.4816H8.32068L24.9628 22.8829ZM8.32068 16.6421V12.4816V37.4447V16.6421Z" fill="#4DC853"/>
</svg>
